<?xml version="1.0" encoding="UTF-8" standalone="no"?>
<!-- Created with Inkscape (http://www.inkscape.org/) -->

<svg
   xmlns:dc="http://purl.org/dc/elements/1.1/"
   xmlns:cc="http://creativecommons.org/ns#"
   xmlns:rdf="http://www.w3.org/1999/02/22-rdf-syntax-ns#"
   xmlns:svg="http://www.w3.org/2000/svg"
   xmlns="http://www.w3.org/2000/svg"
   xmlns:sodipodi="http://sodipodi.sourceforge.net/DTD/sodipodi-0.dtd"
   xmlns:inkscape="http://www.inkscape.org/namespaces/inkscape"
   width="78mm"
   height="297mm"
   viewBox="0 0 276.37795 1052.3622"
   id="svg4702"
   version="1.1"
   inkscape:version="0.91 r13725"
   sodipodi:docname="pointerArrow3.svg">
  <defs
     id="defs4704" />
  <sodipodi:namedview
     id="base"
     pagecolor="#ffffff"
     bordercolor="#666666"
     borderopacity="1.0"
     inkscape:pageopacity="0.0"
     inkscape:pageshadow="2"
     inkscape:zoom="0.7"
     inkscape:cx="-60.714286"
     inkscape:cy="520"
     inkscape:document-units="px"
     inkscape:current-layer="layer1"
     showgrid="false"
     inkscape:window-width="1280"
     inkscape:window-height="962"
     inkscape:window-x="-8"
     inkscape:window-y="-8"
     inkscape:window-maximized="1" />
  <metadata
     id="metadata4707">
    <rdf:RDF>
      <cc:Work
         rdf:about="">
        <dc:format>image/svg+xml</dc:format>
        <dc:type
           rdf:resource="http://purl.org/dc/dcmitype/StillImage" />
        <dc:title></dc:title>
      </cc:Work>
    </rdf:RDF>
  </metadata>
  <g
     inkscape:label="Layer 1"
     inkscape:groupmode="layer"
     id="layer1">
    <path
       inkscape:connector-curvature="0"
       class="st0"
       d="M 19.649952,729.49775 C -13.823735,607.72055 -1.271126,480.53116 36.386777,360.10692 60.097358,284.33448 99.150204,213.97431 140.99236,146.32034 c -25.10545,18.9431 -53.00009,35.18004 -83.684466,46.00468 -11.157934,4.05928 -26.500007,4.05928 -29.28951,-9.47156 -2.789465,-10.8246 8.368393,-17.59002 16.736901,-20.29615 29.289471,-12.17773 57.184115,-25.70852 82.289565,-47.35785 23.71046,-20.296202 44.63173,-44.651593 65.55262,-67.653964 11.15793,-12.177729 20.92127,-24.355436 33.4738,-35.180078 8.36836,-6.7654514 16.73671,-16.2369644 27.89503,-10.8245992 9.7641,5.4122775 9.7641,14.8838782 6.97452,24.3553912 -5.57992,14.883922 -12.55406,28.414649 -19.52744,43.298527 -13.94789,29.767801 -32.0792,56.829403 -43.23675,86.597123 -9.76334,27.0616 -15.34211,56.8294 -15.34211,85.24405 0,10.8246 2.78919,29.76776 -12.5533,33.82697 -11.15755,1.35307 -19.52591,-6.76536 -20.92089,-16.23692 -5.57877,-31.12084 4.18418,-67.654 12.55292,-97.42174 -39.05296,67.65396 -75.315962,136.6611 -97.631676,211.08043 -20.92104,69.00709 -33.473687,140.72029 -32.078974,212.43342 1.394751,131.24888 55.78967,258.43827 145.05276,357.21327 13.94713,16.2369 29.28924,31.12078 46.02672,46.00466 13.94674,12.1778 32.07882,23.0024 44.63289,36.5333 8.36797,10.8244 5.57877,27.0615 -8.36874,31.1208 -19.52744,5.4121 -47.42209,-25.7087 -61.3696,-37.8863 -18.13208,-16.2369 -36.26338,-33.82686 -53.00009,-52.77024 C 113.09695,927.04722 85.202691,886.45482 62.886822,841.8033 43.360534,805.2704 29.413135,767.38408 19.649952,729.49775 Z"
       id="path4713"
       style="opacity:1;fill:#b8c4c6;fill-opacity:1" />
  </g>
</svg>
