<?xml version="1.0" encoding="UTF-8" standalone="no"?>
<!-- Generator: Adobe Illustrator 19.2.0, SVG Export Plug-In . SVG Version: 6.00 Build 0)  -->

<svg
   xmlns:dc="http://purl.org/dc/elements/1.1/"
   xmlns:cc="http://creativecommons.org/ns#"
   xmlns:rdf="http://www.w3.org/1999/02/22-rdf-syntax-ns#"
   xmlns:svg="http://www.w3.org/2000/svg"
   xmlns="http://www.w3.org/2000/svg"
   xmlns:sodipodi="http://sodipodi.sourceforge.net/DTD/sodipodi-0.dtd"
   xmlns:inkscape="http://www.inkscape.org/namespaces/inkscape"
   version="1.1"
   id="Layer_1"
   x="0px"
   y="0px"
   viewBox="0 0 39 39"
   style="enable-background:new 0 0 39 39;"
   xml:space="preserve"
   inkscape:version="0.91 r13725"
   sodipodi:docname="videoPlayIcon-.svg"><metadata
   id="metadata5274"><rdf:RDF><cc:Work
       rdf:about=""><dc:format>image/svg+xml</dc:format><dc:type
         rdf:resource="http://purl.org/dc/dcmitype/StillImage" /><dc:title></dc:title></cc:Work></rdf:RDF></metadata><defs
   id="defs5272" /><sodipodi:namedview
   pagecolor="#ffffff"
   bordercolor="#666666"
   borderopacity="1"
   objecttolerance="10"
   gridtolerance="10"
   guidetolerance="10"
   inkscape:pageopacity="0"
   inkscape:pageshadow="2"
   inkscape:window-width="1280"
   inkscape:window-height="962"
   id="namedview5270"
   showgrid="false"
   inkscape:zoom="12.102564"
   inkscape:cx="19.5"
   inkscape:cy="19.5"
   inkscape:window-x="-8"
   inkscape:window-y="-8"
   inkscape:window-maximized="1"
   inkscape:current-layer="Layer_1" />
<style
   type="text/css"
   id="style5262">
	.st0{fill:#2993B3;}
</style>
<g
   id="g5264"
   style="fill:#f9d449;fill-opacity:1">
	<path
   class="st0"
   d="M19.5,0C8.7,0,0,8.7,0,19.5C0,30.3,8.7,39,19.5,39S39,30.3,39,19.5C39,8.7,30.3,0,19.5,0z M19.5,37.1   c-9.7,0-17.6-7.9-17.6-17.6c0-9.7,7.9-17.6,17.6-17.6s17.6,7.9,17.6,17.6C37.1,29.2,29.2,37.1,19.5,37.1z"
   id="path5266"
   style="fill:#f9d449;fill-opacity:1" />
	<path
   class="st0"
   d="M26,17.8l-6.7-5.6c-0.8-0.7-1.9-0.8-2.9-0.4c-1,0.5-1.6,1.4-1.6,2.5v11.2c0,1.1,0.6,2,1.6,2.5   c0.4,0.2,0.8,0.3,1.2,0.3c0.6,0,1.2-0.2,1.7-0.6l6.7-5.6c0.6-0.5,1-1.3,1-2.1C26.9,19,26.6,18.3,26,17.8z M24.7,20.4L18.1,26   c-0.3,0.3-0.7,0.2-0.8,0.1c-0.1-0.1-0.4-0.3-0.4-0.7V14.3c0-0.4,0.3-0.6,0.4-0.7c0.1,0,0.2-0.1,0.3-0.1c0.1,0,0.3,0,0.5,0.2   l6.7,5.6c0,0,0,0,0,0c0.2,0.2,0.3,0.5,0.3,0.6C25,20,25,20.2,24.7,20.4z"
   id="path5268"
   style="fill:#f9d449;fill-opacity:1" />
</g>
<path
   style="opacity:1;fill:#f9d449;fill-opacity:1"
   d="m 17.219492,25.977966 c -0.146811,-0.14681 -0.198306,-1.725989 -0.198306,-6.081356 0,-6.05093 0.02424,-6.28405 0.652755,-6.276641 0.140879,0.0017 1.817796,1.305573 3.726483,2.897582 2.656194,2.215496 3.470339,2.982972 3.470339,3.271409 0,0.286757 -0.844029,1.09528 -3.530599,3.382079 -1.941829,1.652878 -3.618747,3.005232 -3.726483,3.005232 -0.107736,0 -0.285122,-0.08924 -0.394189,-0.198305 z"
   id="path5827"
   inkscape:connector-curvature="0" /><path
   style="opacity:1;fill:#f9d449;fill-opacity:1"
   id="path5829"
   d="m 21.10669,15.794075 c 0.136572,0.102761 -0.04181,-0.02773 0.126909,0.08144 0.112888,0.07304 0.0448,0.04395 0.162606,0.111257 0.243636,0.139199 -0.06282,-0.05203 0.1773,0.100994 0.08432,0.08843 0.267124,0.195649 0.262567,0.335912 -5.68e-4,0.0175 -0.01038,0.03345 -0.01558,0.05018 -0.192571,0.103052 -0.377885,0.220998 -0.577714,0.309155 -0.02221,0.0098 -0.04699,-0.01323 -0.06877,-0.02395 -0.127559,-0.06281 -0.212603,-0.185977 -0.291514,-0.298808 -0.09156,-0.11442 -0.173734,-0.235761 -0.267888,-0.348146 -0.02049,-0.02446 -0.04359,-0.04661 -0.06538,-0.06991 -0.02053,-0.02499 -0.04106,-0.04998 -0.0616,-0.07497 -0.0711,-0.05588 -0.114842,-0.138751 -0.188283,-0.192098 -0.01758,-0.01277 -0.0386,-0.01998 -0.05828,-0.02916 -0.01227,-0.0057 -0.04922,-0.0087 -0.03753,-0.01553 0.172335,-0.100832 0.35506,-0.18275 0.53259,-0.274126 0.06317,0.09688 0.154445,0.171157 0.232585,0.255167 0.05509,0.05923 0.125035,0.145464 0.176284,0.207276 0.09451,0.143697 0.218454,0.265129 0.296912,0.41958 0.06061,0.139485 0.02885,0.07302 0.09441,0.199793 0.06042,0.117915 0.09221,0.248823 0.176059,0.354416 0.03449,0.04344 0.110087,0.108441 0.149522,0.144101 0.130131,0.07936 0.25196,0.201254 0.409234,0.224562 0.02299,0.0034 0.08941,-0.01755 0.06952,-0.0055 -0.159843,0.09654 -0.329943,0.174976 -0.494915,0.262464 0.0023,-0.0094 0.0093,-0.01872 0.007,-0.02807 -0.02444,-0.0971 -0.113222,-0.184008 -0.163744,-0.267028 -0.03321,-0.05457 -0.06173,-0.111866 -0.09404,-0.166974 -0.0052,-0.01716 -0.01464,-0.03356 -0.01566,-0.05147 -9.74e-4,-0.01705 -0.0047,-0.04129 0.0098,-0.05028 0.180389,-0.111721 0.367252,-0.213937 0.560003,-0.302644 0.02478,-0.0114 0.188221,0.105702 0.204913,0.11746 0.183294,0.115752 0.359395,0.246837 0.515976,0.397144 0.07117,0.09252 0.160473,0.214538 0.125174,0.340295 -0.0058,0.02079 -0.01339,0.04549 -0.03211,0.05626 -0.190238,0.109468 -0.390894,0.199744 -0.586342,0.299616 -0.210562,-0.09833 -0.336062,-0.306592 -0.436926,-0.506797 -0.07836,-0.179634 -0.136539,-0.376716 -0.249284,-0.539582 -0.02247,-0.03246 -0.05003,-0.06108 -0.07504,-0.09162 -0.06963,-0.06626 -0.154008,-0.126935 -0.255147,-0.129319 -0.02501,-5.9e-4 -0.05086,0.0038 -0.07375,0.01386 -0.02196,0.0097 -0.07855,0.05462 -0.0571,0.04386 0.155365,-0.07798 0.306563,-0.163995 0.459844,-0.245992 -0.0091,0.02243 -0.02364,0.04336 -0.02739,0.06728 -0.0283,0.180566 0.155825,0.317768 0.273707,0.41836 0.140014,0.104714 0.305804,0.164378 0.462064,0.238952 0.07358,0.03512 0.144274,0.07599 0.217027,0.11279 0.03494,0.02049 0.06937,0.04187 0.104817,0.06146 0.112902,0.06237 0.09964,0.04347 0.203409,0.118917 0.1042,0.07576 0.195532,0.167625 0.287835,0.25689 0.112763,0.103289 0.211968,0.218842 0.314338,0.331834 0.08058,0.08894 0.111682,0.109069 0.183685,0.203489 0.02537,0.03328 0.04688,0.06933 0.07033,0.10399 0.130181,0.154227 0.202157,0.344678 0.321968,0.505747 0.150984,0.148962 0.349783,0.222944 0.54358,0.298969 0.04392,0.02271 0.159732,0.08338 0.206208,0.104399 0.100324,0.04537 0.221693,0.07823 0.280761,0.178486 -0.180535,0.105784 -0.354333,0.224013 -0.541605,0.317352 -0.01553,0.0077 -0.03159,-0.01474 -0.04593,-0.02451 -0.08936,-0.0609 -0.168811,-0.134252 -0.25393,-0.200785 -0.08807,-0.08896 -0.190801,-0.160005 -0.254608,-0.270644 -0.02892,-0.05015 -0.05011,-0.104386 -0.0764,-0.155962 -0.06846,-0.269314 0.02949,-0.142478 0.535167,-0.361798 0.0067,-0.0029 0.0926,0.132185 0.101325,0.145555 0.06185,0.088 0.08746,0.191366 0.1245,0.290144 0.03015,0.08042 0.06556,0.148153 0.07779,0.233728 -0.184679,0.111707 -0.358465,0.243815 -0.554036,0.335121 -0.02708,0.01264 -0.05473,-0.02421 -0.08086,-0.03871 -0.101083,-0.0561 -0.104321,-0.06905 -0.204137,-0.138693 -0.21465,-0.14977 -0.02191,-0.0035 -0.227613,-0.164452 -0.200638,-0.19022 -0.280469,-0.382167 -0.294371,-0.655459 0.01286,-0.09279 0.04771,-0.179881 0.135106,-0.227435 0.177918,-0.09681 0.446996,-0.388824 0.69662,-0.286928 0.02966,0.01211 0.05443,0.03378 0.08165,0.05067 0.106942,0.103326 0.148462,0.241687 0.172429,0.384633 0.0066,0.03934 0.0069,0.07967 0.01529,0.118675 0.0085,0.03964 0.02339,0.07763 0.03508,0.116447 0.04559,0.125805 0.09731,0.252024 0.160488,0.370262 0.05762,0.107832 0.126646,0.20796 0.182535,0.317148 0.02446,0.06159 0.05328,0.142909 0.08883,0.200454 0.03225,0.0522 0.07725,0.0955 0.112056,0.146028 0.05317,0.07719 0.05226,0.08524 0.09147,0.171033 0.02048,-0.04947 0.02504,0.104788 0.05592,0.08852 0.01059,-0.0056 0.0079,-0.04097 -0.0029,-0.0358 -0.175164,0.08407 -0.332752,0.202699 -0.510116,0.282028 -0.01829,0.0082 0.0089,-0.03913 0.01148,-0.05901 0.0035,-0.0274 0.0045,-0.05508 0.0067,-0.08261 0.0013,-0.0328 0.0054,-0.06561 0.0039,-0.09841 -0.0042,-0.09502 -0.03434,-0.190594 -0.05212,-0.283503 -0.01986,-0.103728 -0.01946,-0.110585 -0.03435,-0.216457 -0.0527,-0.292904 -0.147577,-0.109568 0.494198,-0.368878 0.0187,-0.0076 -0.01955,0.03528 -0.02915,0.05302 -0.01249,0.02308 -0.02474,0.04629 -0.03712,0.06943 -0.08,0.131917 -0.123865,0.286479 -0.219578,0.409382 -0.01905,0.02446 -0.04235,0.04529 -0.06353,0.06793 -0.125694,0.126444 -0.276637,0.224284 -0.390331,0.362276 -0.105631,0.141785 -0.217855,0.277788 -0.333,0.411883 -0.09622,0.139108 -0.277343,0.196874 -0.366761,0.339562 6.74e-4,-0.01539 2.6e-4,-0.03718 0.01202,-0.04851 0.01177,-0.01134 0.03032,-0.01241 0.04466,-0.02025 0.08953,-0.04893 0.144301,-0.07773 0.242062,-0.114763 0.309922,-0.174733 -0.262464,0.148087 -0.322342,0.180207 -0.03384,0.01815 0.06551,-0.04016 0.09718,-0.06188 0.09885,-0.06779 0.15255,-0.125458 0.220079,-0.223086 0.09145,-0.172069 0.258005,-0.26862 0.408133,-0.382207 0.04051,-0.0041 0.03569,-0.0563 0.06319,-0.07305 0.0037,-0.0023 0.0021,0.01317 0.0061,0.01147 0.182624,-0.078 0.361007,-0.165608 0.542659,-0.245844 0.03501,-0.01547 -0.06518,0.04015 -0.09755,0.06058 -0.156902,0.13019 -0.304522,0.270197 -0.443864,0.418956 -0.138228,0.13383 -0.258252,0.286542 -0.411869,0.403276 -0.145829,0.100779 -0.282931,0.212078 -0.417672,0.326998 -0.01136,0.0077 -0.135509,0.0915 -0.147566,0.100964 -0.01617,0.01269 -0.03061,0.02746 -0.04503,0.0421 -0.0045,0.0045 -0.0085,0.02087 -0.01145,0.01524 -0.03553,-0.06771 -0.01724,-0.05936 0.02966,-0.08059 0.109936,-0.01066 0.202436,-0.06066 0.297757,-0.111341 0.03647,-0.01939 0.145448,-0.07827 0.109888,-0.05726 -0.559135,0.330384 -0.471868,0.276578 -0.271472,0.145181 0.264432,-0.183522 0.487593,-0.416827 0.729033,-0.627776 0.138874,-0.1408 0.337573,-0.272737 0.386115,-0.478279 0.0054,-0.02302 0.0026,-0.04724 0.0039,-0.07086 -0.0222,-0.06672 -0.06443,-0.104725 -0.138916,-0.100005 -0.09301,0.0059 -0.211789,0.08035 -0.182662,0.06345 0.133833,-0.07766 0.271209,-0.149051 0.406814,-0.223577 -0.227683,0.14334 -0.41846,0.326867 -0.579627,0.540867 -0.145763,0.168615 -0.242215,0.37037 -0.368754,0.552293 -0.09616,0.151506 -0.233283,0.269953 -0.336401,0.415621 -0.09744,0.147925 -0.209533,0.284113 -0.324439,0.418507 -0.02121,0.02562 -0.04341,0.05044 -0.06363,0.07685 -0.04313,0.05631 -0.0759,0.113349 -0.122366,0.16724 -0.06413,0.07439 -0.140934,0.140319 -0.214932,0.204471 -0.07713,0.05451 -0.158996,0.102052 -0.237358,0.154627 -0.0496,0.03327 -0.09411,0.07413 -0.145496,0.104568 -0.194897,0.115449 -0.392549,0.226182 -0.588823,0.339273 0.144562,-0.0817 0.288396,-0.164711 0.433686,-0.245114 0.02646,-0.01464 -0.05195,0.03102 -0.07712,0.04779 -0.106115,0.07073 -0.20551,0.150545 -0.312364,0.220436 -0.170466,0.114298 -0.324201,0.250298 -0.49357,0.36601 -0.07491,0.058 -0.154973,0.108836 -0.22784,0.169501 -0.0077,0.0064 -0.0126,0.01669 -0.02182,0.02054 -0.185452,0.07754 -0.371491,0.154005 -0.560335,0.22288 -0.01827,0.0067 0.03091,-0.02362 0.04637,-0.03543 0.176358,-0.159746 0.376498,-0.289955 0.57117,-0.42585 1.183553,-0.682806 0.505656,-0.289141 0.192153,-0.116099 -0.03029,0.01672 0.05853,-0.03698 0.08868,-0.05397 0.19938,-0.112362 0.396951,-0.228159 0.599844,-0.334047 0.03099,-0.01617 0.06754,-0.01854 0.100098,-0.03124 0.03039,-0.01186 0.05884,-0.02816 0.08826,-0.04225 0.05625,-0.03531 0.123046,-0.04288 0.183005,-0.06826 0.02857,-0.01209 0.109291,-0.05879 0.08214,-0.04378 -0.70172,0.387961 -0.489031,0.301694 -0.309389,0.126414 0.111602,-0.101984 0.209197,-0.221199 0.239942,-0.373583 0.0055,-0.02725 0.004,-0.05545 0.006,-0.08318 -0.0064,-0.02206 -0.0069,-0.04677 -0.01917,-0.0662 -0.02734,-0.04332 -0.05959,-0.0301 -0.10069,-0.02419 -0.106876,0.01536 -0.186613,0.05627 -0.2809,0.107685 0.746078,-0.464012 0.322126,-0.175222 0.174706,-0.03984 -0.08772,0.08055 -0.154982,0.172424 -0.227221,0.266323 -0.06914,0.121379 -0.176065,0.213315 -0.258926,0.323915 -0.04174,0.05571 -0.07773,0.11551 -0.117243,0.172823 -0.02459,0.0376 -0.06597,0.08307 -0.06917,0.133471 -2.39e-4,0.0038 0.0075,1.74e-4 0.0113,2.6e-4 0.0086,-0.01832 0.04413,-0.06317 0.02567,-0.05495 -0.151372,0.06741 -0.286026,0.168482 -0.436487,0.2379 -0.04351,0.02007 0.07542,-0.05914 0.113126,-0.08871 0.03794,-0.03425 0.07668,-0.06763 0.113808,-0.102757 0.09545,-0.0903 0.132905,-0.137599 0.232262,-0.222849 0.08762,-0.07518 0.136847,-0.10126 0.222009,-0.176246 0.03022,-0.02661 0.05766,-0.05622 0.0865,-0.08434 0.149063,-0.112743 0.220308,-0.2847 0.327923,-0.430239 0.02862,-0.03871 0.06128,-0.07428 0.09191,-0.111414 0.215373,-0.281459 0.505402,-0.487627 0.768022,-0.720556 0.208518,-0.173244 0.401358,-0.362818 0.583882,-0.562886 0.03002,-0.02926 0.06033,-0.05823 0.09007,-0.08777 0.02806,-0.02788 0.05626,-0.05564 0.08332,-0.08449 0.01753,-0.01868 0.0342,-0.03818 0.05042,-0.05801 0.0053,-0.0065 0.0063,-0.01758 0.01405,-0.02085 0.601583,-0.254905 0.673027,-0.326289 0.457936,-0.149586 -0.243219,0.246643 -0.471024,0.510301 -0.731438,0.739838 -0.05492,0.04841 -0.114011,0.09187 -0.171017,0.137807 -0.184198,0.14254 -0.361212,0.294728 -0.547218,0.43485 -0.07457,0.05617 -0.153033,0.106984 -0.229075,0.161145 -0.182258,0.108214 -0.33359,0.258964 -0.509084,0.375955 -0.150765,0.09415 -0.287997,0.205712 -0.422898,0.320793 -0.147246,0.09809 -0.292952,0.19793 -0.427155,0.313453 -0.158183,0.12446 -0.301833,0.26453 -0.435246,0.414979 -0.123744,0.165726 -0.24559,0.333011 -0.383039,0.487758 -0.120386,0.118791 -0.180277,0.279593 -0.271961,0.41813 -0.02107,0.03184 -0.04491,0.06176 -0.06736,0.09265 -0.102981,0.174181 -0.264772,0.306165 -0.369665,0.477672 -0.002,0.0092 -0.01414,0.03235 -0.0059,0.02772 0.01091,-0.0061 0.0072,-0.02542 0.01654,-0.0337 0.01746,-0.01541 0.04072,-0.02263 0.06075,-0.0345 0.03012,-0.01785 0.120762,-0.07075 0.08968,-0.05464 -0.421284,0.218371 -0.526412,0.326609 -0.303007,0.126916 0.08413,-0.09943 0.178251,-0.191008 0.25458,-0.296982 0.06373,-0.08848 0.120517,-0.184643 0.178364,-0.277097 0.07603,-0.141811 0.141247,-0.294623 0.254073,-0.412441 0.0241,-0.02517 0.05136,-0.0471 0.07704,-0.07064 0.08476,-0.0593 0.173713,-0.11196 0.261609,-0.166306 0.02051,-0.01268 0.0412,-0.02515 0.0609,-0.03906 0.0099,-0.007 0.0158,-0.02572 0.02775,-0.02357 0.0102,0.0018 0.0054,0.02001 0.0081,0.03002 -0.0087,0.01577 -0.01172,0.03643 -0.02607,0.04731 -0.02702,0.02048 -0.121743,0.0595 -0.09241,0.0425 0.123102,-0.07135 0.246116,-0.143369 0.374013,-0.20572 0.05043,-0.02459 -0.09429,0.06084 -0.140899,0.09207 -0.145383,0.09744 -0.147329,0.101258 -0.289209,0.205543 -0.158887,0.09794 -0.292014,0.228933 -0.435575,0.346202 -0.134784,0.110101 -0.280881,0.205517 -0.418136,0.312543 -0.09103,0.0602 -0.170228,0.130977 -0.244056,0.20986 -0.0041,0.0044 0.0048,-0.01215 0.0101,-0.01487 0.02128,-0.01085 0.04554,-0.01476 0.06731,-0.02459 0.04682,-0.02113 0.09214,-0.04544 0.138203,-0.06815 -0.0958,0.05312 -0.181981,0.129595 -0.287404,0.159345 -0.09208,0.02599 0.16555,-0.0961 0.246123,-0.147695 0.24024,-0.153852 0.477541,-0.323317 0.686027,-0.518828 0.05523,-0.0518 0.105256,-0.108882 0.157884,-0.163324 0.106724,-0.125693 0.201189,-0.25894 0.245899,-0.419365 0.0073,-0.02612 0.01309,-0.05306 0.01382,-0.08016 2.39e-4,-0.0089 -0.0027,-0.02762 -0.01102,-0.02443 -0.01272,0.0049 -0.01286,0.02402 -0.01929,0.03603 0.835013,-0.491351 0.469476,-0.277752 0.306156,-0.115737 -0.08526,0.08458 -0.160564,0.179421 -0.238202,0.270809 -0.116101,0.136308 -0.19926,0.295671 -0.304039,0.439835 -0.06321,0.08697 -0.09915,0.124956 -0.169966,0.20687 -0.184136,0.201134 -0.352183,0.415549 -0.5421,0.611569 -0.124359,0.156726 -0.295044,0.260748 -0.450904,0.381745 -0.25703,0.209732 -0.554216,0.346657 -0.843734,0.51045 -0.22042,0.124701 0.04233,-0.01448 -0.180377,0.101385 1.073821,-0.612065 -0.130018,0.06972 -0.19396,0.106483 -0.136859,0.07868 0.27422,-0.15653 0.412926,-0.231906 0.03106,-0.01688 -0.06059,0.03648 -0.08984,0.05633 -0.01811,0.01229 -0.140168,0.104004 -0.158111,0.11744 -0.04569,0.04158 -0.09466,0.07942 -0.140614,0.120698 -0.01033,0.0093 -0.01612,0.03333 -0.02946,0.02946 -0.01396,-0.004 7.76e-4,-0.04699 -0.01275,-0.04168 -0.408973,0.160502 -0.677022,0.377786 -0.439406,0.192133 0.175618,-0.18475 0.348548,-0.37267 0.540783,-0.540499 0.196109,-0.166932 0.399962,-0.324168 0.603892,-0.481399 0.269288,-0.202022 0.502593,-0.396084 0.831521,-0.526717 0.02609,-0.01036 0.02187,0.05171 0.0328,0.07756 -0.0086,0.009 -0.01844,0.01699 -0.02584,0.02702 -0.02539,0.03443 -0.04256,0.07441 -0.06766,0.109044 -0.05884,0.08119 -0.124729,0.158536 -0.184945,0.238869 -0.09555,0.124684 -0.21423,0.229036 -0.316641,0.347401 -0.05635,0.06513 -0.107111,0.134891 -0.161337,0.201796 -0.06871,0.09046 -0.133782,0.185831 -0.223959,0.257023 -0.01622,0.0128 -0.150084,0.09826 -0.170558,0.110188 -0.196598,0.114573 -0.394325,0.2272 -0.591488,0.3408 0.143791,-0.08061 0.286177,-0.163775 0.431372,-0.241825 0.02689,-0.01446 -0.04974,0.03558 -0.07616,0.05088 -0.196191,0.113657 -0.394658,0.223341 -0.591482,0.335897 -0.143939,0.08231 0.577327,-0.326486 0.432824,-0.245166 -0.595101,0.334897 -0.355319,0.340671 -0.634356,0.321268 -0.01632,-0.014 -0.036,-0.02484 -0.04895,-0.04201 -0.05784,-0.07669 -0.07314,-0.243556 -0.05673,-0.334338 0.0052,-0.02897 0.01809,-0.05604 0.02714,-0.08406 0.183676,-0.265508 0.480893,-0.380709 0.76694,-0.531722 0.03291,-0.01737 0.07273,-0.01621 0.108222,-0.02741 0.036,-0.01136 0.0706,-0.02676 0.105894,-0.04014 0.07036,-0.03414 0.148963,-0.04185 0.221934,-0.0674 0.03399,-0.0119 0.129966,-0.0617 0.09893,-0.04342 -0.784148,0.461703 -0.437368,0.260007 -0.27985,0.122441 0.08379,-0.08251 0.177027,-0.159543 0.251459,-0.251229 0.03189,-0.03928 0.05862,-0.0845 0.08539,-0.127412 0.09259,-0.195108 0.02919,-0.07305 0.553189,-0.245129 0.02503,-0.0082 -0.03206,0.04181 -0.04839,0.06248 -0.08911,0.112811 -0.175842,0.226977 -0.261941,0.342136 -0.205988,0.238897 -0.348748,0.523998 -0.547162,0.767763 -0.196634,0.166962 -0.191568,0.169811 -0.623075,0.326873 -0.02321,0.0084 -0.03687,-0.03535 -0.04547,-0.05851 -0.03751,-0.100934 0.0081,-0.210364 0.03774,-0.305484 0.03694,-0.09318 0.09098,-0.177358 0.140647,-0.26375 0.0078,-0.01356 0.01519,-0.0274 0.02161,-0.04166 0.0023,-0.005 0.0017,-0.02076 0.0043,-0.01593 0.01029,0.01878 0.01355,0.04063 0.02033,0.06095 0.163831,-0.08974 0.641996,-0.379857 0.491494,-0.269211 -0.178917,0.131537 -0.38292,0.225112 -0.577376,0.33235 -0.0249,0.01373 -0.05322,0.02006 -0.07983,0.03008 -0.0257,0.01568 -0.05085,0.03229 -0.0771,0.04704 -0.02778,0.01561 -0.112362,0.0601 -0.08488,0.04397 0.137232,-0.08056 0.276154,-0.158197 0.41423,-0.237295 -0.174443,0.09902 -0.466776,0.30016 -0.711708,0.386375 -0.03715,0.01308 -0.07617,0.02055 -0.113093,0.03425 -0.03439,0.01276 -0.06671,0.03055 -0.100425,0.04499 -0.105634,0.04523 -0.09126,0.03786 -0.200279,0.07352 -0.03143,0.0031 -0.06279,0.01161 -0.0943,0.0094 -0.175636,-0.01229 -0.213902,-0.201798 -0.240331,-0.34035 -0.02866,-0.238704 -0.02381,-0.479886 -0.02304,-0.719863 0.0015,-0.249594 0.0026,-0.499189 0.0033,-0.748786 4.4e-5,-0.02551 0.002,-0.179562 -0.0033,-0.216859 -0.0022,-0.01537 -0.0057,-0.03196 -0.01575,-0.04381 -0.0035,-0.0041 -0.01696,0.01322 -0.01208,0.01087 0.171689,-0.08249 0.332784,-0.190115 0.513073,-0.251575 0.0286,-0.0098 -0.01868,0.05748 -0.02802,0.08622 -0.01182,0.04612 -0.02464,0.09199 -0.03545,0.138357 -0.03509,0.150426 -0.03943,0.205698 -0.0823,0.357094 -0.0498,0.175915 -0.115159,0.348173 -0.170813,0.522335 -0.06685,0.248444 -0.168452,0.483725 -0.220614,0.736156 -0.02549,0.170735 -0.06864,0.37461 0.05803,0.51847 0.02007,0.02279 0.04644,0.03915 0.06967,0.05872 0.196892,0.108208 0.427275,0.10828 0.646189,0.114678 0.11111,0.0054 0.229502,-0.0045 0.335925,-0.0405 0.03044,-0.01031 0.114938,-0.05747 0.08692,-0.04173 -0.468425,0.263117 -0.532979,0.373048 -0.395733,0.179026 0.0025,-0.01979 0.01036,-0.03964 0.0075,-0.05938 -0.0077,-0.05294 -0.08281,-0.142602 -0.107504,-0.190721 -0.0307,-0.05982 -0.05671,-0.121934 -0.08587,-0.18252 -0.10931,-0.218954 -0.148154,-0.458663 -0.171791,-0.69947 -0.0054,-0.250494 -0.03992,-0.498337 -0.10298,-0.740716 -0.08531,-0.241554 -0.107465,-0.496724 -0.157111,-0.74593 -0.04713,-0.162613 -0.06024,-0.332186 -0.09207,-0.497531 -0.0083,-0.04309 -0.04424,-0.16511 -0.05645,-0.207776 -0.01084,-0.04144 -0.0243,-0.1182 -0.05301,-0.159216 -0.0031,-0.0044 -0.02047,-0.0014 -0.01567,-0.0038 0.173324,-0.08745 0.340436,-0.191551 0.524593,-0.252996 0.02724,-0.0091 -0.01449,0.05571 -0.01852,0.08414 -0.0063,0.04448 -0.0083,0.08946 -0.0124,0.134186 -0.05167,0.443612 -0.11985,0.88482 -0.178718,1.327479 -0.04651,0.364633 -0.06601,0.731735 -0.07443,1.098971 0.0065,0.164971 -0.05085,0.396295 0.09823,0.518517 0.02094,0.01717 0.04666,0.02747 0.07,0.04121 0.155883,0.05644 0.327881,0.07889 0.488794,0.02651 0.02942,-0.0096 0.05585,-0.02664 0.08377,-0.03996 -0.778521,0.438988 -0.429508,0.312852 -0.34147,0.09394 0.0408,-0.101444 0.06506,-0.214425 0.09463,-0.319494 0.08005,-0.303902 0.09042,-0.619737 0.102565,-0.932038 -0.01896,-0.351583 -0.03737,-0.70843 -0.114327,-1.053388 -0.01328,-0.05954 -0.03298,-0.117473 -0.04947,-0.176209 -0.04356,-0.103204 -0.09452,-0.240957 -0.227683,-0.252948 -0.06832,-0.0062 -0.23028,0.08604 -0.163141,0.04581 0.141668,-0.08488 0.288915,-0.160088 0.433372,-0.240133 -0.208563,0.151711 -0.326634,0.388212 -0.430883,0.617419 -0.120341,0.282559 -0.148578,0.587474 -0.165525,0.89057 -0.0025,0.07587 -0.0126,0.185085 0.0082,0.261968 0.0058,0.02146 0.015,0.04675 0.03477,0.05691 0.01116,0.0057 0.04041,-0.02908 0.02884,-0.0242 -0.156056,0.06575 -0.295307,0.189956 -0.463744,0.207452 -0.05938,0.0062 0.04447,-0.110808 0.06671,-0.166212 0.13393,-0.492785 0.156969,-1.006311 0.172939,-1.514111 0.0018,-0.104292 5.3e-5,-0.247929 0.0163,-0.353899 0.01871,-0.122013 0.06297,-0.240855 0.08494,-0.362779 0.02505,-0.197923 0.02219,-0.398152 0.02287,-0.59729 0.02619,-0.212446 0.07421,-0.420647 0.09771,-0.633753 0.03982,-0.217579 -0.01337,-0.426864 -0.04926,-0.640074 -0.03629,-0.231949 -0.04293,-0.466947 -0.04788,-0.701223 -0.0036,-0.247456 -0.0029,-0.49495 -0.0027,-0.742426 3.07e-4,-0.248079 4.76e-4,-0.496158 5.71e-4,-0.744238 0.02468,-0.216183 0.07456,-0.427723 0.09882,-0.644245 0.02223,-0.23889 0.02379,-0.479028 0.02554,-0.718747 9.67e-4,-0.247881 3.44e-4,-0.495764 6.8e-5,-0.743645 -2.76e-4,-0.24801 -3.49e-4,-0.496019 -3.94e-4,-0.744029 -3.3e-5,-0.247889 -2.8e-5,-0.495779 -2.6e-5,-0.743668 0.0024,-0.278134 0.0027,-0.556263 0.0019,-0.834412 -4.34e-4,-0.132448 -8.49e-4,-0.264897 -0.0011,-0.397346 -1.74e-4,-0.07889 -0.0045,-0.163483 0.01094,-0.241813 0.0065,-0.03278 0.02016,-0.06371 0.03024,-0.09556 0.01711,-0.02553 0.0306,-0.05388 0.05132,-0.07658 0.02066,-0.02263 0.04482,-0.04268 0.07143,-0.05786 0.19766,-0.112793 0.394416,-0.22822 0.600202,-0.3254 0.04437,-0.02095 0.136478,0.0052 0.174742,0.02787 0.02534,0.01498 0.0443,0.03878 0.06644,0.05817 0.01645,0.02649 0.03582,0.05137 0.04935,0.07946 0.04031,0.08374 0.06632,0.185659 0.105866,0.270936 0.03038,0.06552 0.05711,0.09731 0.09907,0.156656 0.159969,0.204103 0.344043,0.322678 0.585218,0.41077 0.115967,0.05837 0.243368,0.08476 0.365306,0.125608 0.110429,0.03699 0.217558,0.08526 0.321501,0.13721 0.03517,0.01611 0.07134,0.03018 0.105505,0.04833 0.0406,0.0248 0.145897,0.09006 0.189397,0.113003 0.0306,0.01614 0.06338,0.02795 0.09379,0.04444 0.0583,0.03161 0.11358,0.06852 0.171384,0.10102 0.07728,0.05371 0.148833,0.111489 0.22011,0.17245 0.06201,0.05304 0.0791,0.0554 0.1322,0.119636 0.01998,0.02418 0.03579,0.05152 0.05368,0.07729 0.05251,0.09776 0.119435,0.182593 0.190425,0.266906 0.05906,0.07014 0.08171,0.107929 0.150952,0.167368 0.02622,0.02251 0.05586,0.04069 0.08379,0.06104 0.06668,0.05606 0.209069,0.159922 0.207345,0.261444 -2.98e-4,0.01751 -5.65e-4,0.04138 -0.01573,0.05012 -0.184729,0.106514 -0.380729,0.19216 -0.571093,0.28824 -0.01962,-0.0074 -0.04038,-0.01221 -0.05887,-0.02208 -0.04511,-0.02408 -0.08357,-0.0593 -0.12831,-0.08406 -0.02458,-0.0136 -0.0514,-0.02295 -0.07574,-0.03699 -0.05233,-0.03019 -0.101468,-0.06565 -0.153436,-0.09645 -0.02437,-0.01943 -0.04824,-0.0395 -0.0731,-0.05829 -0.02383,-0.01802 -0.04979,-0.03319 -0.07292,-0.05209 -0.0803,-0.06564 -0.140757,-0.149072 -0.213263,-0.222207 -0.02708,-0.02731 -0.05687,-0.0518 -0.08531,-0.07769 -0.104432,-0.118541 -0.236152,-0.207949 -0.350032,-0.316447 -0.118288,-0.122481 -0.05853,-0.06381 -0.17899,-0.176311 -0.104954,-0.102667 -0.180221,-0.229947 -0.267643,-0.346692 -0.01852,-0.02474 -0.03963,-0.04743 -0.05944,-0.07114 -0.01874,-0.02541 -0.03747,-0.05081 -0.0562,-0.07622 -0.08125,-0.08361 -0.143039,-0.18372 -0.247747,-0.241482 -0.06495,-0.03583 -0.100417,-0.04146 -0.171937,-0.06197 -0.03354,-0.0061 -0.0674,-0.01069 -0.100609,-0.0184 -0.07539,-0.01751 -0.14901,-0.04208 -0.22435,-0.05978 -0.120908,-0.02842 -0.24152,-0.04651 -0.361613,-0.07881 -0.169397,-0.04216 -0.330298,-0.110314 -0.496985,-0.161974 0,0 0.482358,-0.32832 0.482358,-0.32832 l 0,0 c 0.165136,0.05349 0.326642,0.118999 0.495959,0.158538 0.230715,0.05497 0.464498,0.09722 0.694669,0.155161 0.08008,0.02656 0.112616,0.03212 0.184516,0.07614 0.106284,0.06508 0.173951,0.1685 0.256724,0.258331 0.03735,0.05099 0.07801,0.0995 0.115207,0.150603 0.08317,0.114251 0.154767,0.238399 0.25568,0.338667 0.05957,0.05734 0.115538,0.118421 0.176283,0.17452 0.116052,0.107176 0.249525,0.195965 0.353254,0.316621 0.146665,0.134237 0.275339,0.28803 0.444434,0.396138 0.07717,0.04597 0.153295,0.08957 0.232365,0.131915 0.02242,0.01201 0.09441,0.05768 0.123434,0.0673 0.01799,0.006 0.0374,0.0062 0.0561,0.0093 -0.162857,0.09795 -0.33021,0.188778 -0.488571,0.293838 -0.01153,0.0077 0.02963,0.01003 0.04143,0.0028 0.02773,-0.01699 -0.0054,-0.06815 -0.02453,-0.09443 -0.0396,-0.05431 -0.09084,-0.09071 -0.142038,-0.132827 -0.02915,-0.02299 -0.06,-0.04398 -0.08746,-0.06896 -0.06582,-0.05987 -0.09456,-0.103402 -0.151508,-0.171308 -0.07193,-0.08576 -0.142758,-0.171256 -0.200109,-0.267996 -0.01623,-0.0228 -0.03055,-0.04709 -0.04869,-0.06841 -0.09426,-0.110768 -0.228319,-0.191034 -0.341609,-0.280001 -0.182429,-0.105804 -0.36408,-0.214193 -0.553713,-0.306139 -0.221478,-0.103554 -0.453747,-0.172876 -0.681566,-0.260413 -0.244235,-0.0984 -0.441772,-0.229977 -0.609397,-0.435882 -0.05398,-0.0739 -0.06956,-0.08731 -0.107523,-0.169128 -0.03687,-0.07947 -0.06479,-0.181892 -0.103075,-0.258906 -0.01102,-0.02218 -0.02735,-0.04129 -0.04103,-0.06194 -0.04846,-0.03496 -0.05605,-0.05166 -0.120459,-0.05165 -0.02725,6e-6 -0.102816,0.02921 -0.08067,0.01333 0.133523,-0.09574 0.281524,-0.169514 0.420567,-0.257042 0.02487,-0.01566 -0.05419,0.02393 -0.07788,0.04132 -0.02308,0.01693 -0.04062,0.04035 -0.06093,0.06053 -0.01345,0.0282 -0.03127,0.0547 -0.04034,0.08459 -0.02547,0.08388 -0.01852,0.149996 -0.01871,0.237045 -2.93e-4,0.132837 -7.07e-4,0.265673 -0.0011,0.39851 -8.3e-4,0.277512 -5.18e-4,0.555005 0.0019,0.832501 -2e-6,0.247888 -8e-6,0.495775 1.6e-5,0.743663 3.5e-5,0.247998 8.8e-5,0.495996 3.41e-4,0.743994 2.66e-4,0.247968 8.35e-4,0.495937 3.35e-4,0.743905 -0.0011,0.240941 -0.0018,0.482204 -0.02041,0.722575 -0.0207,0.216028 -0.06106,0.427753 -0.104292,0.640224 -9.7e-5,0.248093 -2.69e-4,0.496186 -5.84e-4,0.744279 -2.32e-4,0.246988 -9.61e-4,0.493994 0.0027,0.740963 0.0049,0.231064 0.01143,0.462875 0.04765,0.691591 0.03733,0.217871 0.09191,0.432316 0.05487,0.655062 -0.01983,0.212041 -0.05755,0.420218 -0.10095,0.628578 0.0015,0.20041 0.0072,0.401479 -0.0092,0.601417 -0.01325,0.08798 -0.03382,0.166039 -0.06355,0.250108 -0.01422,0.0402 -0.0335,0.07885 -0.04344,0.120317 -0.02857,0.119204 -0.02726,0.235981 -0.03286,0.357782 -0.02985,0.509151 -0.06427,1.019947 -0.15538,1.52241 -0.09296,0.373287 -0.01344,0.216598 -0.614969,0.554234 -0.01814,0.01018 -0.04065,-0.01602 -0.05321,-0.03261 -0.07331,-0.09678 -0.03649,-0.246585 -0.03956,-0.355005 0.01807,-0.308148 0.04058,-0.620038 0.157381,-0.909485 0.09882,-0.233728 0.209809,-0.471174 0.401655,-0.643885 0.01042,-0.0059 0.536381,-0.430353 0.777627,-0.346282 0.137695,0.04798 0.188116,0.18383 0.233179,0.308547 0.10083,0.407928 0.145678,0.82599 0.168862,1.245141 -0.0046,0.312499 -0.005,0.629052 -0.07724,0.934915 -0.01946,0.07419 -0.04197,0.147559 -0.06138,0.221765 -0.01727,0.06603 -0.04604,0.233058 -0.108561,0.275473 -0.186479,0.126517 -0.386534,0.231767 -0.579801,0.34765 -0.216824,0.06971 -0.396438,0.05923 -0.606346,-0.03215 -0.02658,-0.01879 -0.05619,-0.03389 -0.07975,-0.05636 -0.152153,-0.145083 -0.105131,-0.376775 -0.104667,-0.563364 0.01473,-0.37356 0.04584,-0.746137 0.09703,-1.11659 0.0573,-0.435676 0.122536,-0.870177 0.15251,-1.308982 -8.2e-5,-0.04388 -1.17e-4,-0.08775 -2.45e-4,-0.131629 -8.9e-5,-0.03043 -0.02468,-0.07294 -4.07e-4,-0.09128 0.556915,-0.420866 0.520184,-0.484999 0.614156,-0.123746 0.01589,0.05737 0.04554,0.159736 0.05608,0.217397 0.03006,0.164429 0.04216,0.332769 0.08975,0.494088 0.05287,0.247384 0.06808,0.503013 0.154979,0.743202 0.0674,0.244041 0.104169,0.495387 0.108977,0.748607 0.02149,0.233596 0.05599,0.46708 0.165563,0.678084 0.04378,0.08389 0.08214,0.169678 0.132995,0.249578 0.02475,0.03889 0.0717,0.09926 0.08278,0.145714 0.0066,0.02753 0.0012,0.05659 0.0017,0.08489 -0.01154,0.02803 -0.0098,0.06666 -0.03461,0.0841 -0.388391,0.273215 -0.585259,0.422053 -1.012111,0.406359 -0.231484,-0.0089 -0.473977,-0.01461 -0.674498,-0.145098 -0.02586,-0.02441 -0.05525,-0.04556 -0.07759,-0.07324 -0.129207,-0.160071 -0.104179,-0.370998 -0.07576,-0.559501 0.02206,-0.117499 0.0483,-0.229725 0.08914,-0.342395 0.03056,-0.08429 0.06997,-0.165286 0.09851,-0.250276 0.0173,-0.0515 0.02979,-0.104502 0.04468,-0.156753 0.05712,-0.173331 0.126154,-0.344766 0.176434,-0.520161 0.0457,-0.159424 0.0429,-0.19067 0.07033,-0.350142 0.0076,-0.04408 0.01634,-0.08795 0.02451,-0.131924 0.003,-0.0319 -0.01652,-0.07634 0.009,-0.09571 0.171663,-0.130219 0.362733,-0.234013 0.554684,-0.331891 0.01331,-0.0068 0.02277,0.0207 0.02873,0.0344 0.02298,0.05283 0.0109,0.103962 0.0099,0.159559 -7.62e-4,0.04142 -1.55e-4,0.08286 -2.32e-4,0.124292 -6.58e-4,0.249619 -0.0019,0.499236 -0.0033,0.748852 -6.46e-4,0.235525 -0.0053,0.472321 0.02401,0.706485 0.0364,0.185676 0.05933,0.29802 0.278081,0.247206 0.10063,-0.03629 0.198465,-0.07868 0.298735,-0.115834 0.03653,-0.01354 0.07412,-0.0242 0.110284,-0.03869 0.177614,-0.0712 0.423177,-0.234265 -0.299928,0.189962 0.199536,-0.115408 0.398674,-0.231506 0.598608,-0.346224 0.03116,-0.01788 0.134014,-0.07221 0.167155,-0.08868 0.02634,-0.01309 0.104912,-0.05303 0.07974,-0.03781 -0.303478,0.183589 -1.028699,0.587014 0.112646,-0.05394 0.01582,0.01927 0.03734,0.03503 0.04746,0.05781 0.0029,0.0066 -0.01105,0.0096 -0.01476,0.01581 -0.01,0.01668 -0.01547,0.03589 -0.02603,0.05222 -0.01524,0.02354 -0.03593,0.04326 -0.05105,0.06688 -0.03784,0.05915 -0.06361,0.12546 -0.102945,0.18377 -0.0066,0.02039 -0.05083,0.153485 -0.0549,0.182045 -0.0029,0.0206 -0.0033,0.04234 0.0023,0.06237 0.0024,0.0085 0.0273,0.0125 0.01995,0.01737 -0.155756,0.103396 -0.321842,0.190361 -0.480889,0.288617 -0.02141,0.01322 0.04514,-0.02224 0.06771,-0.03336 0.0267,-0.02709 0.05576,-0.05205 0.08012,-0.08126 0.08714,-0.104489 0.09867,-0.14508 0.175444,-0.260753 0.09692,-0.146019 0.201335,-0.287758 0.30814,-0.426609 0.03205,-0.04433 0.0641,-0.08865 0.09615,-0.132979 0.02658,-0.03879 0.05239,-0.07812 0.07975,-0.116363 0.02,-0.02795 0.04215,-0.05432 0.06231,-0.08216 0.01315,-0.01817 0.01778,-0.04526 0.03757,-0.05582 0.186942,-0.09973 0.380374,-0.187213 0.574991,-0.27099 0.0107,-0.0046 -0.01115,0.02045 -0.01673,0.03068 -0.05875,0.08225 -0.02903,0.03697 -0.08745,0.136943 -0.05858,0.0835 -0.05296,0.05607 -0.122632,0.127999 -0.141885,0.146479 0.02617,-0.0049 -0.127803,0.128401 -0.06058,0.06265 -0.06765,0.07809 -0.143586,0.123647 -0.195209,0.117113 -0.390365,0.234502 -0.589586,0.344652 -0.09875,0.0546 -0.220096,0.05771 -0.320658,0.108286 -0.272313,0.0965 -0.45195,0.204349 0.213106,-0.174904 0.02509,-0.01431 -0.04872,0.03133 -0.07079,0.04996 -0.02151,0.01816 -0.03906,0.04058 -0.05945,0.05998 -0.01897,0.01804 -0.03906,0.03486 -0.05859,0.05229 -0.01211,0.02286 -0.02852,0.04392 -0.03632,0.06859 -0.01932,0.06107 -0.01215,0.222221 0.03596,0.273099 0.006,0.0064 0.01649,0.0061 0.02473,0.0091 0.01347,-0.0036 0.05226,-0.01805 0.04042,-0.01069 -0.147282,0.09156 -0.599142,0.349586 -0.448197,0.264196 0.196535,-0.111181 0.388498,-0.230314 0.584986,-0.341579 0.143398,-0.0812 -0.283204,0.168601 -0.425697,0.251379 -0.02635,0.01531 0.05147,-0.03262 0.07721,-0.04893 0.194173,-0.116116 0.388347,-0.232232 0.582521,-0.348348 -0.140546,0.08211 -0.280027,0.166078 -0.421638,0.24634 -0.02899,0.01643 0.05492,-0.03786 0.08363,-0.05477 0.098,-0.0577 0.09089,-0.03497 0.175832,-0.114742 0.06381,-0.05993 0.09752,-0.113269 0.149192,-0.183934 0.289797,-0.341547 -0.128304,0.156285 0.160044,-0.204428 0.116213,-0.145377 0.04522,-0.04393 0.162909,-0.169656 0.02621,-0.028 0.04922,-0.05883 0.07383,-0.08825 0.02619,-0.02736 0.05238,-0.05473 0.07857,-0.08209 0.04057,-0.05602 0.07797,-0.114358 0.120129,-0.169192 0.01822,-0.0237 0.07659,-0.08404 0.09352,-0.114401 0.0095,-0.01703 0.01268,-0.0369 0.02018,-0.0549 0.0046,-0.01116 0.0108,-0.02163 0.0162,-0.03245 0.174573,0.211547 0.0196,0.06393 0.554443,-0.235242 0.01654,-0.0093 -0.02789,0.02578 -0.04322,0.03692 -0.02429,0.01764 -0.05151,0.03107 -0.07541,0.04923 -0.25973,0.19743 0.09309,-0.04863 -0.188694,0.14369 -0.03329,0.02655 -0.06564,0.05432 -0.09988,0.07964 -0.0346,0.02558 -0.07286,0.04613 -0.106491,0.07297 -0.03295,0.0263 -0.0603,0.05907 -0.09274,0.086 -0.100607,0.0835 -0.217582,0.14674 -0.308383,0.242398 -0.189785,0.150437 -0.02969,0.01418 -0.197804,0.184426 -0.112753,0.114182 -0.236486,0.216844 -0.329122,0.349853 -0.204037,0.189811 -0.150957,0.150167 -0.64057,0.354878 -0.01625,0.0068 -0.02357,-0.03165 -0.02001,-0.0489 0.0084,-0.04064 0.164045,-0.118373 0.179074,-0.164483 0.05431,-0.03891 0.104082,-0.08393 0.158532,-0.122652 0.02892,-0.02056 0.06047,-0.03716 0.09101,-0.05522 0.198167,-0.117212 0.396972,-0.233343 0.595111,-0.350602 0.06428,-0.03804 -1.525999,0.89601 0.195955,-0.108711 0.02989,-0.01626 0.05981,-0.03247 0.08967,-0.04877 0.219443,-0.119828 0.168994,-0.09621 -0.317613,0.193899 -0.02961,0.01766 0.06016,-0.03385 0.08877,-0.0531 0.02713,-0.01826 0.05184,-0.03989 0.07819,-0.05927 0.02398,-0.01764 0.04851,-0.03452 0.07277,-0.05178 0.150222,-0.131449 0.337233,-0.218203 0.460648,-0.379936 0.168392,-0.160137 0.0077,-0.002 0.173747,-0.182591 0.03123,-0.03397 0.06598,-0.06465 0.09645,-0.09931 0.09443,-0.10737 0.171184,-0.230368 0.27748,-0.327494 0.06895,-0.07781 0.10742,-0.118462 0.170522,-0.200325 0.109618,-0.142209 0.190376,-0.304022 0.302618,-0.444746 0.07564,-0.09101 0.147346,-0.189311 0.229153,-0.274948 0.02413,-0.02526 0.05225,-0.04645 0.07677,-0.07132 0.02246,-0.02278 0.03668,-0.05489 0.06403,-0.07148 0.191903,-0.116439 0.393124,-0.216779 0.589685,-0.325168 0.02072,0.01073 0.04706,0.0144 0.06216,0.03219 0.03169,0.03735 1.05e-4,0.120241 -0.0088,0.149569 -0.05226,0.171228 -0.142447,0.318008 -0.260717,0.452684 -0.05499,0.05722 -0.107278,0.117167 -0.164976,0.171658 -0.468734,0.442681 -1.04851,0.745914 -1.599741,1.068146 -0.05583,0.02194 -0.108649,0.05414 -0.167485,0.06583 -0.04559,0.0091 -0.15414,0.0034 -0.149946,-0.07848 0.0019,-0.03613 0.132915,-0.136098 0.139684,-0.141398 0.04015,-0.03144 0.08213,-0.06048 0.123195,-0.09073 0.04368,-0.035 0.08613,-0.07159 0.131032,-0.104996 0.08954,-0.06661 0.204924,-0.136108 0.292046,-0.206113 0.14461,-0.116199 0.271898,-0.255345 0.433395,-0.350544 0.137032,-0.103209 0.274505,-0.209036 0.421554,-0.297958 0.207522,-0.12549 0.415369,-0.250534 0.626032,-0.370675 0.03396,-0.01937 0.06889,-0.03987 0.107226,-0.0475 0.02647,-0.0053 0.05356,0.0068 0.08034,0.01014 0.0071,0.01604 0.02296,0.03067 0.0212,0.04811 -0.0034,0.03345 -0.08251,0.07777 -0.09645,0.08625 -0.0879,0.05348 -0.175281,0.107602 -0.26577,0.15665 -0.02652,0.02067 -0.05487,0.03918 -0.07956,0.062 -0.118819,0.109769 -0.190082,0.261303 -0.259417,0.404072 -0.179081,0.296638 0.07474,-0.118559 -0.119018,0.180799 -0.02201,0.03401 -0.03905,0.07113 -0.06178,0.104659 -0.06898,0.101753 -0.08567,0.104425 -0.16635,0.198537 -0.03015,0.03518 -0.05836,0.07197 -0.08754,0.10796 -0.258866,0.252404 -0.08681,0.09828 -0.69396,0.463893 -0.06415,0.03863 -0.195278,0.12126 -0.25456,0.02132 -0.0089,-0.01507 0.0038,-0.03483 0.0057,-0.05225 0.01284,-0.02446 0.02306,-0.05049 0.03851,-0.07339 0.05819,-0.08623 0.06711,-0.07161 0.134689,-0.150383 0.02355,-0.02746 0.04259,-0.05853 0.06542,-0.08659 0.130976,-0.16103 0.01729,-0.0013 0.136929,-0.17829 0.04609,-0.05958 0.08776,-0.108867 0.12495,-0.174553 0.06529,-0.115331 0.114244,-0.242686 0.207234,-0.340438 0.130611,-0.130344 0.0048,0.0014 0.126628,-0.145777 0.02146,-0.02591 0.0468,-0.04849 0.06767,-0.07487 0.02224,-0.02812 0.03974,-0.05975 0.06141,-0.08832 0.148177,-0.195359 -0.0084,0.03234 0.131998,-0.178001 0.02335,-0.02766 0.110573,-0.13226 0.137567,-0.159432 0.02394,-0.0241 0.05173,-0.04412 0.07594,-0.06795 0.06849,-0.06741 0.132133,-0.138206 0.213695,-0.191382 0.12354,-0.122398 0.276804,-0.22772 0.425847,-0.316683 0.09151,-0.07235 0.04769,-0.03358 0.131351,-0.116428 0.02248,-0.0189 0.04877,-0.03283 0.07185,-0.05099 0.02351,-0.01849 0.04362,-0.04116 0.06774,-0.05883 0.02435,-0.01783 0.05146,-0.03154 0.07719,-0.0473 0.02453,-0.01853 0.04906,-0.03705 0.07359,-0.05557 0.0846,-0.04756 0.08334,-0.04164 0.158291,-0.104894 0.02598,-0.02193 0.04856,-0.04777 0.07515,-0.06895 0.02819,-0.02246 0.05993,-0.04012 0.08883,-0.06166 0.178868,-0.133328 -3.73e-4,-0.01476 0.1989,-0.14054 0.03698,-0.02687 0.07314,-0.05492 0.110948,-0.08061 0.04034,-0.02742 0.08398,-0.04991 0.123371,-0.07867 0.04134,-0.03018 0.07781,-0.06658 0.118361,-0.09781 0.0455,-0.03504 0.09411,-0.0659 0.139648,-0.100899 0.103623,-0.07964 0.19987,-0.168624 0.306544,-0.244434 0.05818,-0.04443 0.118919,-0.08569 0.174529,-0.133289 0.05708,-0.04886 0.108963,-0.103479 0.163025,-0.155656 0.187727,-0.181185 0.372339,-0.365295 0.533183,-0.571369 0.20542,-0.209167 0.07133,-0.08772 0.652862,-0.318123 0.01246,-0.0049 -0.01535,0.02204 -0.02412,0.03218 -0.07246,0.08384 -0.151041,0.163094 -0.235127,0.235229 -0.08155,0.09135 -0.160998,0.187486 -0.250796,0.271028 -0.03321,0.0309 -0.06991,0.05788 -0.103507,0.08836 -0.251936,0.228634 0.03969,-0.01895 -0.2422,0.215338 -0.256699,0.232192 -0.547869,0.430365 -0.759514,0.70859 -0.02988,0.034 -0.06218,0.06602 -0.08963,0.102006 -0.111358,0.145982 -0.167772,0.331524 -0.324349,0.441858 -0.02909,0.03059 -0.05619,0.06322 -0.08727,0.09178 -0.115736,0.106368 -0.10334,0.07358 -0.229052,0.175291 -0.106747,0.08636 -0.133686,0.12443 -0.230891,0.221519 -0.03567,0.03563 -0.07236,0.07024 -0.108539,0.105355 -0.245496,0.202254 -0.240061,0.20579 -0.689163,0.443121 -0.04898,0.02588 -0.101858,-0.01423 -0.107183,-0.06089 -0.0065,-0.05657 0.045,-0.118096 0.07009,-0.158443 0.2084,-0.280518 -0.08957,0.126585 0.11679,-0.176399 0.07838,-0.115079 0.194956,-0.198811 0.26025,-0.323702 0.04888,-0.06051 0.09087,-0.126402 0.140339,-0.186431 0.07199,-0.08737 0.105974,-0.10554 0.191391,-0.180559 0.306757,-0.269411 -0.07052,0.0089 0.719419,-0.457222 0.120851,-0.05635 0.356142,-0.171807 0.44897,-0.0042 0.0144,0.02601 0.01721,0.05692 0.02581,0.08538 -8.83e-4,0.03218 0.0018,0.06467 -0.0026,0.09655 -0.02209,0.157199 -0.104404,0.297394 -0.225082,0.398103 -0.24941,0.288254 -0.621076,0.44339 -0.969621,0.583285 -0.03002,0.01237 -0.05986,0.0252 -0.09006,0.03712 -0.433093,0.170958 0.62236,-0.39019 0.226889,-0.157741 -0.198324,0.11657 -0.396556,0.233298 -0.594517,0.350484 -0.13262,0.0785 0.265662,-0.156297 0.398493,-0.234445 -0.137187,0.09156 -0.06925,0.04319 -0.203594,0.145405 -0.120845,0.08364 -0.251339,0.157731 -0.35288,0.266159 -0.172908,0.186216 -0.04153,0.05484 -0.610567,0.271443 -0.01313,0.005 0.02095,-0.01874 0.03164,-0.02786 0.07499,-0.06393 0.158697,-0.113738 0.233211,-0.178392 0.08722,-0.0544 0.170777,-0.113672 0.250423,-0.178871 0.02583,-0.02114 0.0483,-0.04626 0.07473,-0.06666 0.02699,-0.02083 0.05674,-0.03781 0.08511,-0.05671 0.0273,-0.02148 0.05459,-0.04296 0.08188,-0.06444 0.08288,-0.04957 0.162869,-0.103658 0.239636,-0.162404 0.02373,-0.01816 0.04416,-0.0405 0.06862,-0.05766 0.209314,-0.146895 0.532096,-0.116247 0.660952,-0.389432 -0.142416,0.08383 -0.283631,0.169733 -0.427249,0.251486 -0.02599,0.0148 0.05024,-0.03255 0.07417,-0.0505 0.0244,-0.0183 0.04561,-0.04074 0.07067,-0.05812 0.02544,-0.01764 0.05432,-0.02981 0.08032,-0.04661 0.170846,-0.110348 -0.02029,-0.0022 0.160966,-0.100509 0.148208,-0.11454 0.0055,9.18e-4 0.145798,-0.128653 0.02439,-0.02252 0.05261,-0.04084 0.07582,-0.06458 0.07378,-0.07543 0.05984,-0.08183 0.120809,-0.167686 0.01878,-0.02645 0.04052,-0.05068 0.06078,-0.07602 0.01839,-0.02316 0.03677,-0.04631 0.05516,-0.06947 0.02032,-0.02038 0.04237,-0.03917 0.06096,-0.06114 0.01917,-0.02267 0.03345,-0.04913 0.05196,-0.07234 0.01797,-0.02254 0.04007,-0.04166 0.05734,-0.06474 0.01798,-0.02405 0.03204,-0.0508 0.04805,-0.0762 0.01801,-0.02284 0.03602,-0.04567 0.05403,-0.06851 0.01556,-0.02625 0.02909,-0.05381 0.04668,-0.07874 0.06663,-0.09444 0.044,-0.0436 0.120132,-0.127622 0.02016,-0.02224 0.03565,-0.04837 0.05521,-0.07114 0.113642,-0.13231 0.01225,0.0075 0.114441,-0.142459 0.140942,-0.175923 0.225625,-0.389465 0.379699,-0.556264 0.154829,-0.219721 0.340293,-0.410464 0.566548,-0.558073 0.201051,-0.117759 0.398547,-0.241813 0.603154,-0.353279 0.114039,-0.06213 0.27815,-0.0627 0.358328,0.05309 0.01586,0.02291 0.02206,0.05119 0.03308,0.07678 -6.4e-5,0.02987 0.0048,0.06016 -1.91e-4,0.08962 -0.03705,0.220451 -0.24392,0.366587 -0.390162,0.513624 -0.245213,0.204661 -0.461691,0.442585 -0.720616,0.631384 -0.29718,0.207495 -0.121892,0.0899 -0.726135,0.43318 -0.04283,0.02433 -0.177259,0.09089 -0.223288,0.109042 -0.0309,0.01219 -0.165173,0.05325 -0.205044,0.0656 -0.01868,0.0053 -0.03775,0.02232 -0.05604,0.01583 -0.137847,-0.04895 0.03233,-0.170208 0.07769,-0.20001 0.0248,-0.01629 0.05181,-0.02893 0.07771,-0.0434 0.09187,-0.07245 0.0479,-0.03361 0.131796,-0.116668 0.02247,-0.01896 0.04875,-0.03296 0.07174,-0.05128 0.02334,-0.0186 0.04321,-0.04138 0.06706,-0.05933 0.02387,-0.01796 0.05044,-0.03203 0.07566,-0.04805 0.0235,-0.01892 0.04701,-0.03784 0.07051,-0.05676 0.02575,-0.0159 0.053,-0.02959 0.07726,-0.04769 0.07943,-0.05929 0.06084,-0.06137 0.13043,-0.132585 0.02242,-0.02294 0.04875,-0.04183 0.07112,-0.06481 0.201942,-0.207458 -0.0734,0.05345 0.142368,-0.14707 0.169382,-0.193472 -0.02897,0.02741 0.152281,-0.156746 0.02601,-0.02642 0.04806,-0.05659 0.07443,-0.08265 0.139257,-0.137619 0.01875,-0.0028 0.146372,-0.126591 0.01978,-0.01919 0.0369,-0.04096 0.05535,-0.06144 0.194194,-0.148335 0.434329,-0.237145 0.65791,-0.323576 0.01278,-0.0049 0.01428,0.02632 0.01095,0.03961 -0.0093,0.03704 -0.0833,0.03864 -0.07193,0.08915 -0.154042,0.131297 0.01928,-0.01047 -0.146328,0.106721 -0.02511,0.01777 -0.04709,0.03969 -0.072,0.05775 -0.0251,0.01819 -0.05386,0.03125 -0.07785,0.05088 -0.063,0.05157 -0.07772,0.08357 -0.123649,0.150508 -0.09142,0.158561 -0.151955,0.214649 -0.309261,0.308508 -0.603501,0.360085 -0.393093,0.253461 -0.690188,0.399809 -0.03207,0.01402 -0.06461,0.027 -0.0962,0.04205 -0.04681,0.02231 -0.15851,0.09879 -0.212693,0.09721 -0.05363,-0.0016 -0.05817,-0.03331 -0.08094,-0.07182 0.0557,-0.116372 0.141721,-0.157385 0.238983,-0.232702 0.02094,-0.01622 0.113338,-0.102884 0.135246,-0.123256 0.239711,-0.301582 -0.127864,0.155415 0.116552,-0.130698 0.01934,-0.02264 0.03383,-0.04909 0.05262,-0.07218 0.01828,-0.02245 0.04069,-0.04139 0.05846,-0.06425 0.194661,-0.250519 -0.09435,0.09414 0.106841,-0.142045 0.01702,-0.02536 0.03176,-0.0524 0.05106,-0.07607 0.06147,-0.07542 0.06104,-0.05512 0.133786,-0.117121 0.02289,-0.01951 0.04203,-0.04316 0.06506,-0.06251 0.170109,-0.142911 -0.02333,0.04113 0.136877,-0.116376 0.0229,-0.01899 0.04814,-0.03546 0.06869,-0.05698 0.05755,-0.06025 0.05893,-0.08526 0.09863,-0.157902 0.01471,-0.02691 0.03321,-0.05175 0.04646,-0.0794 0.01372,-0.02864 0.02277,-0.05928 0.03416,-0.08892 0.01265,-0.02541 0.02531,-0.05082 0.03796,-0.07623 0.0124,-0.02014 0.02761,-0.0388 0.03721,-0.06042 0.0086,-0.01941 -9.74e-4,-0.04998 0.01692,-0.06143 0.584814,-0.374312 0.548964,-0.494326 0.58602,-0.150329 0.01453,0.101046 0.01478,0.112768 0.0346,0.211817 0.01951,0.09747 0.05086,0.195464 0.05925,0.294879 0.0027,0.03247 3.26e-4,0.06518 4.88e-4,0.09776 -4.6e-5,0.02768 -10e-6,0.05535 -1.38e-4,0.08303 -1.01e-4,0.02175 0.01653,0.05178 -5.48e-4,0.06525 -0.406572,0.320803 -0.483613,0.537261 -0.609826,0.21904 -0.03729,-0.08176 -0.03468,-0.0854 -0.08539,-0.159556 -0.02639,-0.03859 -0.09222,-0.118516 -0.115058,-0.157717 -0.034,-0.05836 -0.06174,-0.138797 -0.0856,-0.201246 -0.114868,-0.232277 -0.263611,-0.448388 -0.34503,-0.696701 -0.01416,-0.04157 -0.03229,-0.08199 -0.04248,-0.12471 -0.0089,-0.03724 -0.0082,-0.07617 -0.01445,-0.113943 -0.02077,-0.125415 -0.05388,-0.250436 -0.152639,-0.337236 -0.02305,-0.01101 -0.04437,-0.02684 -0.06915,-0.03302 -0.026,-0.0065 -0.101258,0.01238 -0.08027,-0.0043 0.131255,-0.104188 0.28459,-0.177096 0.42466,-0.269094 0.0238,-0.01563 -0.05265,0.02295 -0.07559,0.03982 -0.06406,0.04712 -0.0592,0.06452 -0.08791,0.136275 -0.0012,0.03347 -0.0066,0.06707 -0.0035,0.100419 0.01853,0.198781 0.120314,0.379641 0.26387,0.513794 0.107228,0.08324 0.218731,0.165294 0.337741,0.231391 0.03077,0.01709 0.06223,0.03396 0.09591,0.04418 0.0217,0.0066 0.08559,-0.0086 0.0678,0.0055 -0.146668,0.115749 -0.311457,0.206476 -0.467186,0.309714 0.02099,-0.09404 -0.02041,-0.13607 -0.05354,-0.223814 -0.03519,-0.09322 -0.06031,-0.190029 -0.123117,-0.270454 -0.02671,-0.03454 -0.05079,-0.07138 -0.08077,-0.103122 -0.0095,-0.01006 -0.04298,-0.01947 -0.03145,-0.02712 0.169283,-0.112391 0.352636,-0.201994 0.528873,-0.303131 0.0052,-0.003 -0.01397,0.003 -0.01582,0.0087 -0.0043,0.01346 -4.26e-4,0.02827 -6.38e-4,0.04241 0.01856,0.04574 0.042,0.107399 0.06644,0.149192 0.06113,0.10453 0.161777,0.171479 0.24606,0.255094 0.06689,0.05207 0.129542,0.105537 0.201952,0.149823 0.01701,0.0104 0.03323,0.02251 0.05158,0.03031 0.01475,0.0063 0.05957,0.0019 0.0467,0.01147 -0.159843,0.118706 -0.333797,0.217125 -0.500696,0.325688 0.02285,-0.02729 0.01864,-0.01476 -0.04366,-0.05523 -0.121875,-0.07919 -0.268169,-0.116024 -0.391288,-0.193702 -0.203934,-0.08114 -0.415546,-0.158023 -0.568946,-0.322467 -0.116767,-0.164198 -0.190966,-0.353218 -0.315601,-0.512394 -0.153455,-0.235721 -0.355755,-0.43601 -0.557879,-0.63007 -0.09272,-0.08541 -0.184675,-0.171631 -0.287911,-0.244538 -0.09518,-0.06722 -0.09474,-0.05955 -0.199998,-0.117199 -0.03492,-0.01913 -0.06933,-0.03918 -0.103997,-0.05878 -0.07048,-0.03713 -0.139434,-0.07725 -0.21111,-0.112024 -0.160565,-0.07789 -0.330764,-0.14063 -0.472515,-0.252427 -0.144145,-0.120414 -0.315979,-0.263925 -0.31728,-0.47083 -1.92e-4,-0.0306 0.01025,-0.06033 0.01538,-0.0905 0.186243,-0.121011 0.369371,-0.246958 0.55873,-0.363032 0.02123,-0.01301 0.04635,-0.01996 0.07106,-0.02302 0.139807,-0.01732 0.257347,0.07951 0.349936,0.169297 0.02629,0.03303 0.05474,0.06444 0.07888,0.09908 0.1146,0.164457 0.176808,0.359338 0.25052,0.543576 0.07289,0.144924 0.194067,0.35371 0.349867,0.423244 0.01968,0.0088 0.04192,0.01005 0.06287,0.01507 -0.151776,0.09607 -0.304962,0.189955 -0.455328,0.28822 -0.01561,0.0102 0.03862,-0.0095 0.05066,-0.02377 0.01354,-0.01603 0.01868,-0.03879 0.01989,-0.05975 0.0052,-0.09063 -0.05857,-0.166227 -0.109663,-0.232672 -0.154276,-0.147569 -0.325187,-0.280132 -0.509967,-0.387245 -0.05405,-0.03106 -0.09092,-0.05832 -0.150783,-0.07315 -0.01551,-0.0038 -0.06104,0.0055 -0.04783,-0.0035 0.158673,-0.108087 0.330333,-0.195891 0.492152,-0.299209 0.0097,-0.0062 -0.02698,-0.0026 -0.03389,0.0066 -0.0079,0.01052 -4.71e-4,0.0263 -7.06e-4,0.03945 0.02088,0.04844 0.05236,0.124774 0.07797,0.167185 0.07301,0.120888 0.192962,0.216252 0.216517,0.362038 -0.185471,0.105507 -0.364216,0.223828 -0.556412,0.31652 -0.02156,0.0104 -0.04761,-0.0068 -0.07037,-0.01424 -0.155498,-0.05059 -0.287714,-0.152743 -0.42048,-0.244362 -0.06107,-0.05392 -0.109561,-0.09164 -0.160161,-0.155602 -0.08539,-0.10794 -0.120344,-0.238705 -0.178534,-0.360845 -0.03201,-0.06524 -0.05797,-0.133331 -0.08998,-0.19857 -0.07455,-0.15195 -0.193336,-0.273757 -0.286348,-0.413631 -0.04102,-0.04764 -0.130983,-0.153962 -0.176631,-0.200045 -0.08942,-0.09027 -0.197153,-0.164751 -0.269168,-0.27109 0.170677,-0.11648 0.334915,-0.243006 0.512031,-0.349441 0.0112,-0.0067 0.02148,0.01489 0.03215,0.02243 0.09666,0.06826 0.170257,0.156631 0.251154,0.242228 0.04102,0.05031 0.08541,0.09781 0.126374,0.148164 0.09267,0.113923 0.173801,0.23641 0.265279,0.351228 0.05941,0.08105 0.12194,0.169196 0.209481,0.223414 0.02185,0.01353 0.04595,0.02396 0.07079,0.03051 0.01808,0.0048 0.07129,-0.0079 0.05602,0.0029 -0.149218,0.105429 -0.311188,0.191537 -0.466782,0.287306 0.0137,-0.0015 0.03145,0.0053 0.04111,-0.0046 0.06292,-0.06403 -0.184374,-0.257681 -0.222801,-0.29306 -0.264433,-0.163857 0.109258,0.06504 -0.177627,-0.101393 -0.100958,-0.05857 -0.193014,-0.131907 -0.301668,-0.177177 0,0 0.51001,-0.335569 0.51001,-0.335569 z"
   inkscape:connector-curvature="0" /></svg>