<?xml version="1.0" encoding="UTF-8" standalone="no"?>
<!-- Created with Inkscape (http://www.inkscape.org/) -->

<svg
   xmlns:dc="http://purl.org/dc/elements/1.1/"
   xmlns:cc="http://creativecommons.org/ns#"
   xmlns:rdf="http://www.w3.org/1999/02/22-rdf-syntax-ns#"
   xmlns:svg="http://www.w3.org/2000/svg"
   xmlns="http://www.w3.org/2000/svg"
   xmlns:sodipodi="http://sodipodi.sourceforge.net/DTD/sodipodi-0.dtd"
   xmlns:inkscape="http://www.inkscape.org/namespaces/inkscape"
   width="39mm"
   height="39mm"
   viewBox="0 0 138.18898 138.18898"
   id="svg8057"
   version="1.1"
   inkscape:version="0.91 r13725"
   sodipodi:docname="videoPlayIcon-yellowhover.svg">
  <defs
     id="defs8059" />
  <sodipodi:namedview
     id="base"
     pagecolor="#ffffff"
     bordercolor="#666666"
     borderopacity="1.0"
     inkscape:pageopacity="0.0"
     inkscape:pageshadow="2"
     inkscape:zoom="1.979899"
     inkscape:cx="-60.714286"
     inkscape:cy="189.60552"
     inkscape:document-units="px"
     inkscape:current-layer="layer1"
     showgrid="false"
     inkscape:window-width="1280"
     inkscape:window-height="962"
     inkscape:window-x="-8"
     inkscape:window-y="-8"
     inkscape:window-maximized="1" />
  <metadata
     id="metadata8062">
    <rdf:RDF>
      <cc:Work
         rdf:about="">
        <dc:format>image/svg+xml</dc:format>
        <dc:type
           rdf:resource="http://purl.org/dc/dcmitype/StillImage" />
        <dc:title></dc:title>
      </cc:Work>
    </rdf:RDF>
  </metadata>
  <g
     inkscape:label="Layer 1"
     inkscape:groupmode="layer"
     id="layer1"
     transform="translate(0,-914.17323)">
    <g
       id="g5264"
       style="fill:#f9d449;fill-opacity:1"
       transform="matrix(3.5897535,0,0,3.5253813,-0.93112402,914.11495)">
      <path
         inkscape:connector-curvature="0"
         class="st0"
         d="M 19.5,0 C 8.7,0 0,8.7 0,19.5 0,30.3 8.7,39 19.5,39 30.3,39 39,30.3 39,19.5 39,8.7 30.3,0 19.5,0 Z m 0,37.1 C 9.8,37.1 1.9,29.2 1.9,19.5 1.9,9.8 9.8,1.9 19.5,1.9 c 9.7,0 17.6,7.9 17.6,17.6 0,9.7 -7.9,17.6 -17.6,17.6 z"
         id="path5266"
         style="fill:#f9d449;fill-opacity:1" />
      <path
         inkscape:connector-curvature="0"
         class="st0"
         d="m 26,17.8 -6.7,-5.6 c -0.8,-0.7 -1.9,-0.8 -2.9,-0.4 -1,0.5 -1.6,1.4 -1.6,2.5 l 0,11.2 c 0,1.1 0.6,2 1.6,2.5 0.4,0.2 0.8,0.3 1.2,0.3 0.6,0 1.2,-0.2 1.7,-0.6 L 26,22.1 c 0.6,-0.5 1,-1.3 1,-2.1 -0.1,-1 -0.4,-1.7 -1,-2.2 z m -1.3,2.6 -6.6,5.6 c -0.3,0.3 -0.7,0.2 -0.8,0.1 -0.1,-0.1 -0.4,-0.3 -0.4,-0.7 l 0,-11.1 c 0,-0.4 0.3,-0.6 0.4,-0.7 0.1,0 0.2,-0.1 0.3,-0.1 0.1,0 0.3,0 0.5,0.2 l 6.7,5.6 c 0,0 0,0 0,0 0.2,0.2 0.3,0.5 0.3,0.6 C 25,20 25,20.2 24.7,20.4 Z"
         id="path5268"
         style="fill:#f9d449;fill-opacity:1" />
    </g>
  </g>
</svg>
