<?xml version="1.0" encoding="UTF-8" standalone="no"?>
<!-- Created with Inkscape (http://www.inkscape.org/) -->

<svg
   xmlns:dc="http://purl.org/dc/elements/1.1/"
   xmlns:cc="http://creativecommons.org/ns#"
   xmlns:rdf="http://www.w3.org/1999/02/22-rdf-syntax-ns#"
   xmlns:svg="http://www.w3.org/2000/svg"
   xmlns="http://www.w3.org/2000/svg"
   xmlns:sodipodi="http://sodipodi.sourceforge.net/DTD/sodipodi-0.dtd"
   xmlns:inkscape="http://www.inkscape.org/namespaces/inkscape"
   width="87mm"
   height="100mm"
   viewBox="0 0 308.26772 354.33071"
   id="svg4706"
   version="1.1"
   inkscape:version="0.91 r13725"
   sodipodi:docname="androidIcon-hover.svg">
  <defs
     id="defs4708" />
  <sodipodi:namedview
     id="base"
     pagecolor="#ffffff"
     bordercolor="#666666"
     borderopacity="1.0"
     inkscape:pageopacity="0.0"
     inkscape:pageshadow="2"
     inkscape:zoom="1.4"
     inkscape:cx="45.191445"
     inkscape:cy="200.73627"
     inkscape:document-units="px"
     inkscape:current-layer="layer1"
     showgrid="false"
     inkscape:window-width="1280"
     inkscape:window-height="962"
     inkscape:window-x="-8"
     inkscape:window-y="-8"
     inkscape:window-maximized="1" />
  <metadata
     id="metadata4711">
    <rdf:RDF>
      <cc:Work
         rdf:about="">
        <dc:format>image/svg+xml</dc:format>
        <dc:type
           rdf:resource="http://purl.org/dc/dcmitype/StillImage" />
        <dc:title></dc:title>
      </cc:Work>
    </rdf:RDF>
  </metadata>
  <g
     inkscape:label="Layer 1"
     inkscape:groupmode="layer"
     id="layer1"
     transform="translate(0,-698.0315)">
    <g
       transform="translate(133.64285,850.98369)"
       id="g4139"
       style="fill:#ffffff;fill-opacity:1">
      <path
         inkscape:connector-curvature="0"
         class="st0"
         d="m 152.92808,-41.525053 c -12.02562,0 -21.92907,9.872927 -21.92907,21.861482 l 0,88.151135 c 0,11.988554 9.90345,21.861481 21.92907,21.861481 12.02561,0 21.92906,-9.872927 21.92906,-21.861481 l 0,-88.151135 c 0,-11.988555 -9.90345,-21.861482 -21.92906,-21.861482 z m -263.85616,0 c -12.02561,0 -21.92906,9.872927 -21.92906,21.861482 l 0,88.151135 c 0,11.988554 9.90345,21.861481 21.92906,21.861481 12.025622,0 21.929067,-9.872927 21.929067,-21.861481 l 0,-88.151135 c 0,-11.988555 -9.903445,-21.861482 -21.929067,-21.861482 z m 32.893596,143.157443 c 0,18.33544 14.855173,33.14483 32.893596,33.14483 l 11.318227,0 0,44.07557 c 0,11.98855 9.903449,21.86148 21.929064,21.86148 12.0256156,0 21.929064,-9.87293 21.929064,-21.86148 l 0,-44.07557 21.929065,0 0,44.07557 c 0,11.98855 9.903448,21.86148 21.929064,21.86148 12.025615,0 21.929063,-9.87293 21.929063,-21.86148 l 0,-44.07557 10.964532,0 c 18.038429,0 32.893599,-14.80939 32.893599,-33.14483 l 0,-121.295961 -197.715274,0 0,121.295961 z m 139.70936,-222.84607 13.794089,-26.79794 c 0.70739,-1.41043 0,-3.17344 -1.061083,-3.87865 -1.414779,-0.70521 -3.183251,0 -3.536947,1.05781 l -14.147783,27.15055 C 45.75862,-127.91316 33.733004,-130.3814 21,-130.3814 c -12.733005,0 -24.7586219,2.46824 -35.723154,6.69949 l -14.147782,-27.15055 c -0.70739,-1.41041 -2.475863,-1.76302 -3.536947,-1.05781 -1.414778,0.70521 -1.768473,2.46822 -1.061084,3.87865 l 13.794089,26.79794 c -31.125124,14.10419 -53.761577,44.075569 -57.652217,79.336022 l 196.654185,0 C 115.43645,-77.138111 92.8,-107.10949 61.674876,-121.21368 Z m -84.533005,62.411005 c -8.842364,0 -15.916256,-7.052091 -15.916256,-15.867204 0,-8.815108 7.073892,-15.867203 15.916256,-15.867203 8.842365,0 15.9162562,7.052095 15.9162562,15.867203 0,8.815113 -7.0738912,15.867204 -15.9162562,15.867204 z m 87.716257,0 c -8.842365,0 -15.916257,-7.052091 -15.916257,-15.867204 0,-8.815108 7.073892,-15.867203 15.916257,-15.867203 8.842364,0 15.916255,7.052095 15.916255,15.867203 0,8.815113 -7.073891,15.867204 -15.916255,15.867204 z"
         id="path4141"
         style="fill:#ffffff;fill-opacity:1" />
    </g>
  </g>
</svg>
