<?xml version="1.0" encoding="UTF-8" standalone="no"?>
<!-- Created with Inkscape (http://www.inkscape.org/) -->

<svg
   xmlns:dc="http://purl.org/dc/elements/1.1/"
   xmlns:cc="http://creativecommons.org/ns#"
   xmlns:rdf="http://www.w3.org/1999/02/22-rdf-syntax-ns#"
   xmlns:svg="http://www.w3.org/2000/svg"
   xmlns="http://www.w3.org/2000/svg"
   xmlns:sodipodi="http://sodipodi.sourceforge.net/DTD/sodipodi-0.dtd"
   xmlns:inkscape="http://www.inkscape.org/namespaces/inkscape"
   width="39mm"
   height="39mm"
   viewBox="0 0 138.18898 138.18898"
   id="svg4165"
   version="1.1"
   inkscape:version="0.91 r13725"
   sodipodi:docname="findOperatorsIcon-hover.svg">
  <defs
     id="defs4167" />
  <sodipodi:namedview
     id="base"
     pagecolor="#ffffff"
     bordercolor="#666666"
     borderopacity="1.0"
     inkscape:pageopacity="0.0"
     inkscape:pageshadow="2"
     inkscape:zoom="2.8"
     inkscape:cx="63.690847"
     inkscape:cy="93.596738"
     inkscape:document-units="px"
     inkscape:current-layer="layer1"
     showgrid="false"
     inkscape:window-width="1280"
     inkscape:window-height="962"
     inkscape:window-x="-8"
     inkscape:window-y="-8"
     inkscape:window-maximized="1" />
  <metadata
     id="metadata4170">
    <rdf:RDF>
      <cc:Work
         rdf:about="">
        <dc:format>image/svg+xml</dc:format>
        <dc:type
           rdf:resource="http://purl.org/dc/dcmitype/StillImage" />
        <dc:title></dc:title>
      </cc:Work>
    </rdf:RDF>
  </metadata>
  <g
     inkscape:label="Layer 1"
     inkscape:groupmode="layer"
     id="layer1"
     transform="translate(0,-914.17323)">
    <g
       id="g4139"
       style="fill:#ffffff;fill-opacity:1"
       transform="matrix(3.5274725,0,0,3.5274725,0.5000005,914.64788)">
      <path
         inkscape:connector-curvature="0"
         class="st0"
         d="M 19.9,4.7 C 18.7,4.3 17.4,4.1 16.1,4.1 13,4.1 10.1,5.3 7.9,7.4 7.5,7.8 7.5,8.4 7.9,8.8 8,9 8.3,9.1 8.5,9.1 8.8,9.1 9,9 9.2,8.8 11.1,7 13.5,6.1 16.1,6.1 c 1.1,0 2.1,0.2 3.2,0.5 C 19.8,6.8 20.4,6.5 20.5,6 20.6,5.4 20.4,4.9 19.9,4.7 Z"
         id="path4141"
         style="fill:#ffffff;fill-opacity:1" />
      <path
         inkscape:connector-curvature="0"
         class="st0"
         d="M 38.7,37.3 30.4,29 c -0.4,-0.4 -1,-0.4 -1.4,0 -0.4,0.4 -0.4,1 0,1.4 l 8.3,8.3 c 0.2,0.2 0.4,0.3 0.7,0.3 0.3,0 0.5,-0.1 0.7,-0.3 0.4,-0.4 0.4,-1 0,-1.4 z"
         id="path4143"
         style="fill:#ffffff;fill-opacity:1" />
      <path
         inkscape:connector-curvature="0"
         class="st0"
         d="M 16.1,0 C 7.2,0 0,7.2 0,16.1 0,25 7.2,32.2 16.1,32.2 25,32.2 32.2,25 32.2,16.1 32.2,7.2 25,0 16.1,0 Z m 0,30.2 C 8.3,30.2 2,23.9 2,16.1 2,8.3 8.3,2 16.1,2 c 7.8,0 14.1,6.3 14.1,14.1 0,7.8 -6.3,14.1 -14.1,14.1 z"
         id="path4145"
         style="fill:#ffffff;fill-opacity:1" />
    </g>
  </g>
</svg>
