<?xml version="1.0" encoding="UTF-8" standalone="no"?>
<!-- Created with Inkscape (http://www.inkscape.org/) -->

<svg
   xmlns:dc="http://purl.org/dc/elements/1.1/"
   xmlns:cc="http://creativecommons.org/ns#"
   xmlns:rdf="http://www.w3.org/1999/02/22-rdf-syntax-ns#"
   xmlns:svg="http://www.w3.org/2000/svg"
   xmlns="http://www.w3.org/2000/svg"
   xmlns:sodipodi="http://sodipodi.sourceforge.net/DTD/sodipodi-0.dtd"
   xmlns:inkscape="http://www.inkscape.org/namespaces/inkscape"
   width="39mm"
   height="39mm"
   viewBox="0 0 138.18898 138.18898"
   id="svg4156"
   version="1.1"
   inkscape:version="0.91 r13725"
   sodipodi:docname="videoPlayIcon-yellow.svg">
  <defs
     id="defs4158" />
  <sodipodi:namedview
     id="base"
     pagecolor="#ffffff"
     bordercolor="#666666"
     borderopacity="1.0"
     inkscape:pageopacity="0.0"
     inkscape:pageshadow="2"
     inkscape:zoom="1.979899"
     inkscape:cx="-60.714286"
     inkscape:cy="54.27752"
     inkscape:document-units="px"
     inkscape:current-layer="layer1"
     showgrid="false"
     inkscape:window-width="1280"
     inkscape:window-height="962"
     inkscape:window-x="-8"
     inkscape:window-y="-8"
     inkscape:window-maximized="1" />
  <metadata
     id="metadata4161">
    <rdf:RDF>
      <cc:Work
         rdf:about="">
        <dc:format>image/svg+xml</dc:format>
        <dc:type
           rdf:resource="http://purl.org/dc/dcmitype/StillImage" />
        <dc:title></dc:title>
      </cc:Work>
    </rdf:RDF>
  </metadata>
  <g
     inkscape:label="Layer 1"
     inkscape:groupmode="layer"
     id="layer1"
     transform="translate(0,-914.17323)">
    <path
       inkscape:connector-curvature="0"
       class="st0"
       d="m 69.502361,913.59499 c -38.074118,0 -68.74493556,31.0088 -68.74493556,69.50249 0,38.49382 30.67081756,69.50262 68.74493556,69.50262 38.074119,0 68.744939,-31.0088 68.744939,-69.50262 0,-38.49369 -30.67082,-69.50249 -68.744939,-69.50249 z m 20.447206,75.56166 -13.74898,11.76215 -9.51853,7.8412 c -3.87792,3.2079 -9.871068,0.3566 -9.871068,-4.6335 l 0,-19.60337 0,-19.60318 c 0,-5.34644 5.993148,-8.19777 9.871068,-4.63352 l 9.51853,7.84138 13.74898,11.7618 c 2.82031,2.13858 2.82031,6.7721 0,9.26704 z"
       id="path4139"
       style="fill:#f9ca0e;fill-opacity:1" />
  </g>
</svg>
